<svg id="Layer_1" data-name="Layer 1" xmlns="http://www.w3.org/2000/svg" viewBox="0 0 343.77 403.27"><title>android</title><g id="androd"><path class="cls-1" d="M301.31,83.3,321.47,54a3.46,3.46,0,1,0-5.66-3.91L294.86,80.53a125.37,125.37,0,0,0-90.6,0L183.31,50.12A3.46,3.46,0,1,0,177.65,54L197.81,83.3c-32.06,14.91-54.54,43.26-57.41,76.34H358.72C355.86,126.56,333.38,98.21,301.31,83.3ZM204,129.44A12.08,12.08,0,1,1,216,117.36,12.08,12.08,0,0,1,204,129.44Zm91.2,0a12.08,12.08,0,1,1,12.08-12.08A12.07,12.07,0,0,1,295.16,129.44Z" transform="translate(-77.67 -48.37)"/><path class="cls-1" d="M126.38,297.6A24.35,24.35,0,0,1,102,322h0A24.36,24.36,0,0,1,77.67,297.6V199.09A24.36,24.36,0,0,1,102,174.74h0a24.35,24.35,0,0,1,24.35,24.35Z" transform="translate(-77.67 -48.37)"/><path class="cls-1" d="M140.4,175.49V353.4a19.13,19.13,0,0,0,19.13,19.14h22.63v54.74a24.36,24.36,0,0,0,48.71,0V372.54h37.37v54.74a24.36,24.36,0,0,0,48.71,0V372.54h22.63a19.14,19.14,0,0,0,19.14-19.14V175.49Z" transform="translate(-77.67 -48.37)"/><path class="cls-1" d="M372.73,297.6A24.36,24.36,0,0,0,397.09,322h0a24.35,24.35,0,0,0,24.35-24.35V199.09a24.35,24.35,0,0,0-24.35-24.35h0a24.36,24.36,0,0,0-24.36,24.35Z" transform="translate(-77.67 -48.37)"/></g></svg>